<svg width="112" height="50" viewBox="0 0 112 50" fill="none" xmlns="http://www.w3.org/2000/svg">
<path d="M5.53429 30.7855H3.67902L4.30299 27.6316H13.2944C16.5755 27.6316 18.8862 29.7031 18.8862 33.1439C18.8862 36.2977 16.9176 38.855 14.6921 39.9912C13.6147 40.5396 12.4244 40.8321 11.2145 40.8457H7.30221L5.93363 47.807H2.19604L5.53429 30.7855ZM10.9254 37.6618C13.179 37.6618 15.0623 35.957 15.0623 33.4846C15.0623 31.6658 14.0068 30.7855 12.3231 30.7855H9.27084L7.93034 37.6618H10.9254Z" fill="black"/>
<path d="M21.2245 32.4246L23.8427 18.9836C23.8971 18.7591 23.9349 18.531 23.9558 18.301C23.9558 17.9902 23.6996 17.8462 23.3583 17.8462H22.2172L22.8396 14.6929H26.2265C27.5636 14.6929 28.0761 15.2326 28.0761 16.1131C28.061 16.4263 28.0228 16.7379 27.962 17.0454L25.2877 30.6294C25.238 30.844 25.2092 31.0629 25.2016 31.283C25.2016 31.5669 25.3437 31.7088 25.7431 31.7088H30.1248C30.5021 31.7273 30.8332 31.4597 30.8935 31.0872L31.1206 29.8245H34.4785L33.8924 33.0492C33.6362 34.3566 32.9816 34.8683 31.7296 34.8683H22.8749C21.6228 34.8683 21.0824 34.3566 21.0824 33.476C21.0969 33.1219 21.1445 32.7699 21.2245 32.4246Z" fill="black"/>
<path d="M35.0745 24.474H35.6137C36.04 24.474 36.2346 24.3611 36.5223 23.8525L45.6923 7.45605H49.5814L52.3631 23.8815C52.448 24.3642 52.5898 24.4771 53.0451 24.4771H53.5843L52.9633 27.6315H50.7487C49.4148 27.6315 48.9894 27.2627 48.7907 25.9834L48.2039 22.3683H41.4048L39.4468 25.9834C38.7938 27.2337 38.2826 27.6315 37.0056 27.6315H34.4784L35.0745 24.474ZM47.9639 19.3877C47.7662 16.3763 46.9994 11.3179 46.9994 11.3179H46.9424L42.8536 19.3877H47.9639Z" fill="black"/>
<path d="M56.4048 19.103H57.6017C58.0287 19.103 58.2572 18.9041 58.3424 18.4814L61.5632 2.08325H64.84L70.3464 13.4225C70.9157 14.588 71.4892 16.2643 71.4892 16.2643H71.5464C71.5464 16.2643 71.6887 14.616 71.9173 13.4225L73.7614 3.95948C74.0461 2.56707 74.6736 2.08429 75.9276 2.08429H79.7176L79.0943 5.23897H77.8112C77.4694 5.23897 77.2128 5.43788 77.1276 5.86058L73.9349 22.2587H70.6861L63.96 8.10563C63.96 8.10563 63.7896 9.75394 63.561 10.9474L61.7086 20.4685C61.452 21.7189 60.7964 22.2587 59.5424 22.2587H55.7804L56.4048 19.103Z" fill="black"/>
<path d="M79.2035 25.1841L82.0578 10.6098H80.2024L80.8268 7.45605H92.8237C94.1369 7.45605 94.651 7.99565 94.651 8.876C94.6501 9.19218 94.6117 9.50714 94.5365 9.81434L94.0225 12.4564H90.6541L90.7967 11.718C90.8449 11.5028 90.8738 11.2837 90.883 11.0634C90.883 10.7527 90.626 10.6098 90.2837 10.6098H85.8018L84.7737 15.8918H91.3669L90.7103 19.0455H84.1452L83.2888 23.3955C83.2389 23.61 83.21 23.8289 83.2025 24.049C83.2025 24.3328 83.3461 24.4747 83.7456 24.4747H88.3981C88.7766 24.4932 89.1087 24.2256 89.1692 23.8533L89.3804 22.5876H92.7843L92.1661 25.8138C91.909 27.1199 91.2524 27.6315 89.9965 27.6315H80.857C79.601 27.6315 79.0588 27.1199 79.0588 26.2395C79.0739 25.884 79.1223 25.5307 79.2035 25.1841Z" fill="black"/>
<path d="M96.8662 31.4288C96.8662 31.4288 98.456 33.6004 101.363 33.6004C103.446 33.6004 104.76 32.473 104.76 31.0159C104.76 27.7451 97.113 28.3223 97.113 22.6323C97.113 18.9756 100.374 16.6667 104.184 16.6667C106.761 16.6667 109.804 17.739 109.804 19.9376C109.805 20.2615 109.768 20.5845 109.694 20.8997L109.42 22.3297H106.241L106.351 21.7795C106.404 21.601 106.432 21.4157 106.433 21.2293C106.433 20.3505 105.363 19.9376 104.075 19.9376C101.91 19.9376 100.731 21.065 100.731 22.3848C100.731 25.5454 108.406 24.7487 108.406 30.6021C108.406 34.0924 105.665 36.8422 101.312 36.8422C96.8153 36.8422 94.651 33.8729 94.651 33.8729L96.8662 31.4288Z" fill="black"/>
</svg>
